<svg id="Layer_1" data-name="Layer 1" xmlns="http://www.w3.org/2000/svg" viewBox="0 0 127.95 34.87"><defs><style>.cls-1,.cls-2{fill:#113f58;}.cls-2{font-size:19.63px;font-family:Gramatika-Bold;font-weight:700;}.cls-3{font-size:13.09px;}</style></defs><path class="cls-1" d="M9.18,21.47v6.82c-.35-.28-.72-.61-1.07-.93V21.82Z" transform="translate(0 -0.09)"/><path class="cls-1" d="M12.13,20.45V30a10.5,10.5,0,0,1-1.07-.52V20.82Z" transform="translate(0 -0.09)"/><path class="cls-1" d="M23.85,16.12v2.75l-2.93-1v12.8c-.37.1-.74.17-1.07.24V14.74Z" transform="translate(0 -0.09)"/><path class="cls-1" d="M26.8,21.82v5.55c-.35.31-.72.64-1.07.92V22l-1.86-.63v8.16L22.8,30V20.44Z" transform="translate(0 -0.09)"/><path class="cls-1" d="M28.64,25.21v-4.7l-2.93-1V14.8L18,12.14v19a9.55,9.55,0,0,1-1.07,0V8.75l4,2.25v1.66l1.84.64V9.89L15,5.58v7.21l-5.86,2v4.12L11,18.28V16.12l4-1.38V30.9c-.33-.07-.7-.14-1-.24V17.86L6.27,20.51v4.7a13.36,13.36,0,0,1-2.38-7.67,13.57,13.57,0,1,1,27.13,0A13.36,13.36,0,0,1,28.64,25.21Z" transform="translate(0 -0.09)"/><path class="cls-1" d="M17.45.09A17.44,17.44,0,1,0,34.89,17.52,17.44,17.44,0,0,0,17.45.09Zm0,32.88A15.44,15.44,0,1,1,32.88,17.52,15.46,15.46,0,0,1,17.45,33Z" transform="translate(0 -0.09)"/><text class="cls-2" transform="translate(35.64 23.73) scale(0.81 1)">Hub<tspan class="cls-3" x="37.16" y="0">of</tspan><tspan x="50.37" y="0">Homes</tspan></text></svg>