<?xml version="1.0" standalone="no"?>
<!DOCTYPE svg PUBLIC "-//W3C//DTD SVG 20010904//EN"
 "http://www.w3.org/TR/2001/REC-SVG-20010904/DTD/svg10.dtd">
<svg version="1.0" xmlns="http://www.w3.org/2000/svg"
 width="129.000000pt" height="35.000000pt" viewBox="0 0 129.000000 35.000000"
 preserveAspectRatio="xMidYMid meet">

<g transform="translate(0.000000,35.000000) scale(0.100000,-0.100000)"
fill="#000000" stroke="none">
<path d="M105 331 c-69 -32 -105 -86 -105 -157 0 -105 101 -189 203 -170 167
32 197 257 43 327 -52 23 -90 23 -141 0z m128 -15 c104 -43 127 -180 42 -255
-61 -53 -139 -53 -201 1 -128 112 2 320 159 254z"/>
<path d="M113 295 c-18 -8 -42 -29 -53 -47 -21 -35 -26 -102 -10 -128 8 -13
10 -12 10 3 0 10 7 20 15 23 8 4 15 17 15 31 0 18 8 27 30 34 25 9 30 16 30
45 0 19 2 34 4 34 3 0 21 -10 41 -21 26 -15 35 -27 32 -40 -3 -11 2 -19 14
-22 12 -3 19 -14 19 -30 0 -14 7 -27 15 -31 8 -3 15 -13 16 -23 1 -30 17 17
18 52 3 96 -103 161 -196 120z"/>
<path d="M172 148 l2 -113 3 97 c3 80 6 96 18 91 22 -8 18 15 -5 27 -20 10
-20 8 -18 -102z"/>
<path d="M116 184 c-21 -21 -20 -27 4 -19 17 6 19 0 23 -62 l3 -68 2 83 c2 83
-4 95 -32 66z"/>
<path d="M202 118 l2 -83 3 68 c3 55 7 68 18 63 9 -3 15 0 15 8 0 12 -20 26
-36 26 -2 0 -3 -37 -2 -82z"/>
<path d="M113 95 c0 -27 2 -38 4 -22 2 15 2 37 0 50 -2 12 -4 0 -4 -28z"/>
<path d="M232 93 l1 -48 4 43 c5 50 20 56 26 10 l5 -33 -2 35 c-1 25 -6 36
-18 38 -15 3 -18 -4 -16 -45z"/>
<path d="M82 100 c0 -19 2 -27 5 -17 2 9 2 25 0 35 -3 9 -5 1 -5 -18z"/>
<path d="M370 180 c0 -40 4 -70 10 -70 6 0 10 14 10 30 0 25 4 30 25 30 21 0
25 -5 25 -30 0 -16 5 -30 10 -30 6 0 10 30 10 70 0 40 -4 70 -10 70 -5 0 -10
-13 -10 -30 0 -25 -4 -30 -25 -30 -21 0 -25 5 -25 30 0 17 -4 30 -10 30 -6 0
-10 -30 -10 -70z"/>
<path d="M570 181 c0 -68 0 -69 28 -69 36 0 52 15 52 48 0 32 -23 55 -45 46
-11 -4 -15 1 -15 19 0 14 -4 25 -10 25 -6 0 -10 -30 -10 -69z m55 -21 c0 -13
-6 -25 -12 -27 -16 -6 -27 21 -19 43 9 23 31 11 31 -16z"/>
<path d="M780 179 c0 -44 4 -68 10 -64 6 3 10 17 10 31 0 19 5 24 25 24 21 0
25 -5 25 -31 0 -17 4 -28 10 -24 13 8 13 135 1 135 -5 0 -11 -12 -13 -27 -2
-20 -9 -29 -25 -31 -20 -3 -23 1 -23 27 0 17 -4 31 -10 31 -6 0 -10 -30 -10
-71z"/>
<path d="M480 171 c0 -42 12 -57 48 -59 20 -1 22 4 22 49 0 57 -17 67 -22 12
-2 -21 -7 -38 -13 -38 -5 0 -11 17 -13 38 -4 49 -22 48 -22 -2z"/>
<path d="M904 202 c-23 -15 -25 -49 -5 -73 16 -20 23 -22 38 -13 22 13 29 60
12 80 -13 15 -28 18 -45 6z m36 -27 c10 -12 10 -18 0 -31 -11 -13 -15 -13 -27
-1 -13 13 -8 47 7 47 4 0 13 -7 20 -15z"/>
<path d="M980 159 c0 -57 17 -66 22 -11 3 42 21 50 26 12 6 -48 16 -56 21 -16
8 51 31 61 31 12 0 -19 5 -38 11 -41 7 -5 9 9 7 42 l-3 48 -57 1 -58 1 0 -48z"/>
<path d="M1130 189 c-22 -40 15 -95 50 -74 18 11 11 25 -11 22 -12 -1 -24 4
-26 11 -3 8 6 12 26 12 34 0 36 2 21 31 -14 25 -46 24 -60 -2z m45 -9 c3 -5
-3 -10 -15 -10 -12 0 -18 5 -15 10 3 6 10 10 15 10 5 0 12 -4 15 -10z"/>
<path d="M1217 204 c-14 -14 -7 -43 13 -49 11 -3 20 -11 20 -16 0 -6 -9 -7
-20 -4 -11 3 -20 2 -20 -4 0 -12 37 -24 50 -16 18 11 11 47 -10 52 -11 3 -20
10 -20 15 0 5 10 6 21 3 15 -5 20 -3 17 6 -5 15 -40 24 -51 13z"/>
<path d="M732 183 c-5 -10 -5 -31 -1 -48 l7 -30 1 28 c0 15 6 27 12 27 8 0 8
4 0 14 -9 11 -9 15 1 19 9 4 10 6 1 6 -7 1 -16 -7 -21 -16z"/>
<path d="M670 164 c-10 -11 -11 -20 -3 -32 17 -27 38 -20 38 12 0 34 -16 44
-35 20z m30 -19 c0 -8 -4 -15 -9 -15 -13 0 -22 16 -14 24 11 11 23 6 23 -9z"/>
</g>
</svg>
